<svg xmlns="http://www.w3.org/2000/svg" viewBox="0 0 382.42 300"><g id="Layer_2" data-name="Layer 2"><g id="Layer_1-2" data-name="Layer 1"><circle cx="262.42" cy="80.92" r="17.5"/><path d="M291.56,100.31a35,35,0,0,1-29.14,15.61c-.87,0-1.74,0-2.6-.11a115.44,115.44,0,0,1,.06,68.19,36,36,0,0,1,5.12-.38A34.93,34.93,0,0,1,292.48,197a150.44,150.44,0,0,0-.92-96.65Z"/><path d="M228,87.18A89.94,89.94,0,0,0,230.19,215a35,35,0,0,1,16.5-26.2,59.86,59.86,0,0,1-.57-76.9A35,35,0,0,1,228,87.18Z"/><path d="M292.42,60q-1,0-1.92,0a35,35,0,0,1,5.69,30.1,60,60,0,0,1,2.65,119.52,35.4,35.4,0,0,1,1.16,9A34.86,34.86,0,0,1,292.71,240a90,90,0,0,0-.29-180Z"/><path d="M232.08,230.53a115,115,0,1,1-2-163,35,35,0,0,1,28.15-21.32,150,150,0,1,0,.69,206.91A35.06,35.06,0,0,1,232.08,230.53Z"/><circle cx="265" cy="218.62" r="17.5"/></g></g></svg>