<?xml version="1.0" encoding="UTF-8"?><svg id="Layer_2" xmlns="http://www.w3.org/2000/svg" width="190.851" height="211.372" viewBox="0 0 190.851 211.372"><defs><style>.cls-1{fill:none;stroke:#000;stroke-miterlimit:10;stroke-width:5px;}.cls-2{stroke-width:0px;}</style></defs><g id="Layer_1-2"><path class="cls-2" d="m90.336,31.7c49.26,0,89.336,40.076,89.336,89.336s-40.076,89.336-89.336,89.336S1,170.296,1,121.036,41.076,31.7,90.336,31.7m0-1C40.445,30.7,0,71.144,0,121.036s40.445,90.336,90.336,90.336,90.336-40.445,90.336-90.336S140.228,30.7,90.336,30.7h0Z"/><path class="cls-2" d="m99.774,9.626c47.54,0,86.216,38.676,86.216,86.216s-38.676,86.216-86.216,86.216S13.558,143.382,13.558,95.842,52.234,9.626,99.774,9.626m0-1C51.606,8.626,12.558,47.674,12.558,95.842s39.048,87.216,87.216,87.216,87.216-39.048,87.216-87.216S147.942,8.626,99.774,8.626h0Z"/><path class="cls-2" d="m15.161,185.568c-5.835,0-10.581-4.747-10.581-10.582s4.746-10.581,10.581-10.581,10.582,4.746,10.582,10.581-4.747,10.582-10.582,10.582Z"/><path class="cls-2" d="m15.161,165.844c5.041,0,9.142,4.101,9.142,9.142s-4.101,9.142-9.142,9.142-9.142-4.101-9.142-9.142,4.101-9.142,9.142-9.142m0-2.88c-6.639,0-12.022,5.382-12.022,12.022s5.383,12.022,12.022,12.022,12.022-5.382,12.022-12.022-5.383-12.022-12.022-12.022h0Z"/><path class="cls-2" d="m15.161,76.861c-5.835,0-10.581-4.746-10.581-10.581s4.746-10.582,10.581-10.582,10.582,4.747,10.582,10.582-4.747,10.581-10.582,10.581Z"/><path class="cls-2" d="m15.161,57.138c5.041,0,9.142,4.101,9.142,9.142s-4.101,9.142-9.142,9.142-9.142-4.101-9.142-9.142,4.101-9.142,9.142-9.142m0-2.88c-6.639,0-12.022,5.382-12.022,12.022s5.383,12.022,12.022,12.022,12.022-5.382,12.022-12.022-5.383-12.022-12.022-12.022h0Z"/><path class="cls-2" d="m124.431,23.487c-6.063,0-10.996-4.933-10.996-10.995s4.933-10.996,10.996-10.996,10.996,4.933,10.996,10.996-4.933,10.995-10.996,10.995Z"/><path class="cls-2" d="m124.431,2.993c5.238,0,9.499,4.261,9.499,9.499s-4.261,9.499-9.499,9.499-9.499-4.261-9.499-9.499,4.261-9.499,9.499-9.499m0-2.993c-6.899,0-12.492,5.593-12.492,12.492s5.593,12.492,12.492,12.492,12.492-5.593,12.492-12.492-5.593-12.492-12.492-12.492h0Z"/><path class="cls-2" d="m178.643,132.056c-5.926,0-10.746-4.82-10.746-10.745s4.82-10.745,10.746-10.745,10.745,4.82,10.745,10.745-4.82,10.745-10.745,10.745Z"/><path class="cls-2" d="m178.643,112.027c5.119,0,9.283,4.164,9.283,9.283s-4.164,9.283-9.283,9.283-9.283-4.164-9.283-9.283,4.165-9.283,9.283-9.283m0-2.925c-6.742,0-12.208,5.466-12.208,12.208s5.466,12.208,12.208,12.208,12.208-5.466,12.208-12.208-5.466-12.208-12.208-12.208h0Z"/><polygon class="cls-1" points="124.431 12.492 15.161 66.28 178.643 121.31 124.431 12.492"/><polyline class="cls-1" points="178.643 121.31 15.161 174.986 15.161 66.28"/></g></svg>